<svg id="8163f27d-11bd-4c81-98c7-fdd43b4923fa" data-name="Layer 1" xmlns="http://www.w3.org/2000/svg" viewBox="0 0 40 40">
  <defs>
    <style>
      .d2edad71-7cc3-4b91-b043-6c209bec2fd0 {
        fill-rule: evenodd;
      }
    </style>
  </defs>
  <title>instagram-icon</title>
  <path class="d2edad71-7cc3-4b91-b043-6c209bec2fd0" d="M20,0A20,20,0,1,0,40,20,20,20,0,0,0,20,0Zm8.95,23.71a6.61,6.61,0,0,1-.42,2.18,4.6,4.6,0,0,1-2.63,2.63,6.6,6.6,0,0,1-2.18.42c-1,0-1.27.05-3.71.05s-2.75,0-3.71-.05a6.6,6.6,0,0,1-2.18-.42,4.6,4.6,0,0,1-2.63-2.63,6.61,6.61,0,0,1-.42-2.18c0-1-.05-1.27-.05-3.71s0-2.75.05-3.71a6.61,6.61,0,0,1,.42-2.18,4.6,4.6,0,0,1,2.63-2.63,6.61,6.61,0,0,1,2.18-.42c1,0,1.27-.05,3.71-.05s2.75,0,3.71.05a6.61,6.61,0,0,1,2.18.42,4.6,4.6,0,0,1,2.63,2.63,6.61,6.61,0,0,1,.42,2.18c0,1,.05,1.27.05,3.71S29,22.75,28.95,23.71ZM20,15.38A4.62,4.62,0,1,0,24.62,20,4.62,4.62,0,0,0,20,15.38ZM20,23a3,3,0,1,1,3-3A3,3,0,0,1,20,23Zm5.88-7.8a1.08,1.08,0,1,1-1.08-1.08A1.08,1.08,0,0,1,25.88,15.2Z"/>
</svg>
