<?xml version="1.0" encoding="UTF-8"?>
<svg width="41px" height="40px" viewBox="0 0 41 40" version="1.1" xmlns="http://www.w3.org/2000/svg" xmlns:xlink="http://www.w3.org/1999/xlink">
    <!-- Generator: Sketch 46.2 (44496) - http://www.bohemiancoding.com/sketch -->
    <title>Youtube_White</title>
    <desc>Created with Sketch.</desc>
    <defs></defs>
    <g id="Symbols" stroke="none" stroke-width="1" fill="none" fill-rule="evenodd">
        <g id="social-media" transform="translate(-150.000000, 0.000000)" fill="#007C75">
            <g id="Youtube">
                <g transform="translate(150.000000, 0.000000)">
                    <path d="M0,20 C0,8.95430446 8.9672442,0 20.0289017,0 C31.0905593,0 40.0578035,8.95430446 40.0578035,20 C40.0578035,31.0456955 31.0905593,40 20.0289017,40 C8.9672442,40 0,31.0456955 0,20 Z M30.4533333,15.9742302 C30.4533333,15.9742302 30.2446667,14.4720309 29.6053333,13.8105182 C28.794,12.9418996 27.8846667,12.9378119 27.468,12.887398 C24.4826667,12.6666667 20.0046667,12.6666667 20.0046667,12.6666667 L19.9953333,12.6666667 C19.9953333,12.6666667 15.5173333,12.6666667 12.532,12.887398 C12.1146667,12.9378119 11.206,12.9418996 10.394,13.8105182 C9.75466667,14.4720309 9.54666667,15.9742302 9.54666667,15.9742302 C9.54666667,15.9742302 9.33333333,17.7387183 9.33333333,19.5025251 L9.33333333,21.1566476 C9.33333333,22.9211356 9.54666667,24.6849425 9.54666667,24.6849425 C9.54666667,24.6849425 9.75466667,26.1871418 10.394,26.8486545 C11.206,27.7172731 12.272,27.6900224 12.7466667,27.7806312 C14.4533333,27.9482235 20,28 20,28 C20,28 24.4826667,27.9931873 27.468,27.772456 C27.8846667,27.7213608 28.794,27.7172731 29.6053333,26.8486545 C30.2446667,26.1871418 30.4533333,24.6849425 30.4533333,24.6849425 C30.4533333,24.6849425 30.6666667,22.9211356 30.6666667,21.1566476 L30.6666667,19.5025251 C30.6666667,17.7387183 30.4533333,15.9742302 30.4533333,15.9742302 Z" id="Combined-Shape"></path>
                    <polygon id="Path" points="18.0006667 23.4586277 18 17.3333333 23.764 20.4065402"></polygon>
                </g>
            </g>
        </g>
    </g>
</svg>