<?xml version="1.0" encoding="UTF-8"?>
<svg width="22px" height="14px" viewBox="0 0 22 14" version="1.1" xmlns="http://www.w3.org/2000/svg" xmlns:xlink="http://www.w3.org/1999/xlink">
    <!-- Generator: Sketch 45.1 (43504) - http://www.bohemiancoding.com/sketch -->
    <title>Page 1</title>
    <desc>Created with Sketch.</desc>
    <defs></defs>
    <g id="FHRS" stroke="none" stroke-width="1" fill="none" fill-rule="evenodd">
        <g id="About-Ratings" transform="translate(-510.000000, -35.000000)" fill="#00A39B">
            <g id="Header" transform="translate(461.000000, 0.000000)">
                <path d="M57.2136083,35.2887967 C57.4093541,35.4817608 57.5067454,35.7227358 57.5067454,35.963706 C57.5067454,36.2046762 57.4093492,36.4456464 57.2136083,36.6386153 L52.7639959,41.0240316 L70.0222244,41.0240316 C70.5598054,41.0240316 71,41.4579707 71,41.9879123 C71,42.517854 70.5598054,42.9517931 70.0222244,42.9517931 L52.7639959,42.9517931 L57.2126305,47.3372094 C57.6041318,47.7231472 57.6041318,48.3255727 57.2126305,48.7105466 C56.8211291,49.0964845 56.2100194,49.0964845 55.8194958,48.7105466 L49,41.9879605 L55.8194958,35.2887485 C56.2109971,34.9037505 56.8221069,34.9037505 57.2135838,35.2887485 L57.2136083,35.2887967 Z" id="Page-1"></path>
            </g>
        </g>
    </g>
</svg>