<?xml version="1.0" encoding="UTF-8"?>
<svg width="36px" height="36px" viewBox="0 0 36 36" version="1.1" xmlns="http://www.w3.org/2000/svg" xmlns:xlink="http://www.w3.org/1999/xlink">
    <!-- Generator: Sketch 46.1 (44463) - http://www.bohemiancoding.com/sketch -->
    <title>Page 1</title>
    <desc>Created with Sketch.</desc>
    <defs></defs>
    <g id="Contact" stroke="none" stroke-width="1" fill="none" fill-rule="evenodd">
        <g id="Help-Centre-V3-Consumers" transform="translate(-41.000000, -288.000000)" fill="#00A39B">
            <g id="Left-nav-100%-left" transform="translate(0.000000, 238.000000)">
                <path d="M70.90682,56.09552 C67.5998,52.78382 63.20042,50.9627 58.51982,50.9627 C53.83922,50.9627 49.44002,52.78382 46.13282,56.09552 C42.82112,59.40254 41,63.80192 41,68.48252 C41,73.16312 42.82346,77.56232 46.13282,80.86952 C49.43984,84.17888 53.84162,86 58.51982,86 C63.2003,86 67.59962,84.17654 70.90682,80.86952 C74.21618,77.56016 76.03964,73.16072 76.03964,68.48252 C76.03964,63.80204 74.21852,59.40272 70.90682,56.09552 Z M70.386506,79.35932 L65.872466,74.84528 C69.034166,71.1914 69.034166,65.77268 65.872466,62.11868 L70.386506,57.60464 C73.121666,60.58352 74.635706,64.41584 74.635706,68.48444 C74.640392,72.55316 73.124006,76.38284 70.386506,79.35944 L70.386506,79.35932 Z M58.520306,76.8515 C56.284346,76.8515 54.182006,75.98198 52.599986,74.39996 C49.335146,71.13512 49.335146,65.82416 52.599986,62.56196 C54.182006,60.98228 56.284346,60.11276 58.520306,60.11276 C60.756266,60.11276 62.858606,60.98228 64.440626,62.56196 C67.703126,65.8268 67.703126,71.13776 64.440626,74.39996 C62.858606,75.98198 60.756266,76.8515 58.520306,76.8515 Z M69.397706,56.6111 L64.886006,61.1228 C63.111806,59.58764 60.892286,58.70876 58.520606,58.70876 C56.148926,58.70876 53.931566,59.5853 52.155206,61.1228 L47.643506,56.61578 C50.622386,53.88062 54.452306,52.36658 58.520906,52.36658 C62.592026,52.364234 66.421706,53.87828 69.398306,56.6111 L69.397706,56.6111 Z M46.6493,57.60482 L51.16334,62.11886 C48.00164,65.77274 48.00164,71.19146 51.16334,74.84546 L46.6493,79.3595 C43.91414,76.38062 42.4001,72.5507 42.4001,68.4821 C42.4001,64.41098 43.91648,60.5813 46.6493,57.6047 L46.6493,57.60482 Z M58.5203,84.60242 C54.44918,84.60242 50.6195,83.08838 47.6429,80.35322 L52.1546,75.84152 C53.9288,77.37902 56.14598,78.25556 58.52,78.25556 C60.89186,78.25556 63.11138,77.37902 64.8854,75.84152 L69.3971,80.35322 C66.42056,83.08604 62.5907,84.60242 58.5197,84.60242 L58.5203,84.60242 Z" id="Page-1"></path>
            </g>
        </g>
    </g>
</svg>