<?xml version="1.0" encoding="UTF-8"?>
<svg width="16px" height="16px" viewBox="0 0 16 16" version="1.1" xmlns="http://www.w3.org/2000/svg" xmlns:xlink="http://www.w3.org/1999/xlink">
    <!-- Generator: Sketch 46.1 (44463) - http://www.bohemiancoding.com/sketch -->
    <title>Fill 1</title>
    <desc>Created with Sketch.</desc>
    <defs></defs>
    <g id="Navigation" stroke="none" stroke-width="1" fill="none" fill-rule="evenodd">
        <g id="Default" transform="translate(-973.000000, -82.000000)" fill="#FFFFFF">
            <g id="Header">
                <g id="Searh" transform="translate(431.000000, 70.000000)">
                    <g id="search" transform="translate(73.000000, 0.000000)">
                        <g id="search-icon" transform="translate(469.000000, 12.000000)">
                            <path d="M7,12 C4.238,12 2,9.762 2,7 C2,4.238 4.238,2 7,2 C9.762,2 12,4.238 12,7 C12,9.762 9.762,12 7,12 M15.707,14.293 L12.601,11.187 C13.476,10.018 14,8.572 14,7 C14,3.134 10.866,0 7,0 C3.134,0 0,3.134 0,7 C0,10.866 3.134,14 7,14 C8.572,14 10.019,13.476 11.187,12.601 L14.293,15.707 C14.684,16.098 15.316,16.098 15.707,15.707 C16.098,15.316 16.098,14.684 15.707,14.293" id="Fill-1"></path>
                        </g>
                    </g>
                </g>
            </g>
        </g>
    </g>
</svg>