<?xml version="1.0" standalone="no"?>
<!DOCTYPE svg PUBLIC "-//W3C//DTD SVG 20010904//EN"
 "http://www.w3.org/TR/2001/REC-SVG-20010904/DTD/svg10.dtd">
<svg version="1.0" xmlns="http://www.w3.org/2000/svg"
 width="480.000000pt" height="480.000000pt" viewBox="0 0 480.000000 480.000000"
 preserveAspectRatio="xMidYMid meet">
<metadata>
Created by potrace 1.11, written by Peter Selinger 2001-2013
</metadata>
<g transform="translate(0.000000,480.000000) scale(0.100000,-0.100000)"
fill="#000000" stroke="none">
<path d="M2180 4749 c-728 -76 -1370 -477 -1765 -1104 -162 -256 -284 -593
-332 -910 -27 -185 -24 -536 6 -714 68 -397 213 -739 446 -1050 91 -121 263
-303 377 -398 102 -84 300 -216 414 -275 153 -79 152 -79 80 16 -79 106 -136
215 -180 347 -69 205 -67 150 -64 1514 l3 1230 23 38 c48 76 125 86 181 22 16
-19 32 -49 35 -67 3 -18 8 -478 11 -1023 6 -948 7 -992 25 -1030 49 -101 153
-97 201 9 18 39 19 89 19 1039 0 973 0 999 20 1036 24 48 64 81 99 81 37 0 87
-33 108 -72 17 -31 18 -95 23 -1048 4 -741 8 -1022 17 -1041 16 -36 70 -79 99
-79 42 0 83 28 106 73 l23 42 1 995 c0 745 3 1004 12 1031 30 87 120 122 177
69 64 -60 60 14 65 -1100 5 -972 6 -1016 24 -1046 22 -37 64 -64 99 -64 27 0
80 39 100 74 9 16 13 260 17 1036 l5 1015 25 43 c42 74 105 92 161 45 66 -56
62 6 68 -1120 l6 -1022 34 -35 c45 -46 103 -50 145 -11 58 54 56 7 56 1082 0
647 4 1001 10 1025 33 118 162 132 214 23 16 -32 18 -125 22 -1033 4 -613 10
-1010 16 -1030 5 -17 23 -46 40 -62 57 -57 140 -32 179 54 18 39 19 95 19
1262 0 1030 -2 1235 -15 1306 -36 205 -132 411 -280 595 -49 61 -66 76 -114
94 -173 65 -397 118 -583 138 -113 13 -355 12 -478 0z"/>
</g>
</svg>
