<?xml version="1.0" encoding="UTF-8"?>
<svg width="200px" height="79px" viewBox="0 0 200 79" version="1.1" xmlns="http://www.w3.org/2000/svg" xmlns:xlink="http://www.w3.org/1999/xlink">
    <!-- Generator: Sketch 44.1 (41455) - http://www.bohemiancoding.com/sketch -->
    <title>logo-desktop</title>
    <desc>Created with Sketch.</desc>
    <defs></defs>
    <g id="Styleguide" stroke="none" stroke-width="1" fill="none" fill-rule="evenodd">
        <g transform="translate(-188.000000, -380.000000)" id="Logo">
            <g transform="translate(77.000000, 275.000000)">
                <g id="logo-desktop" transform="translate(111.000000, 105.000000)">
                    <path d="M171.365857,57.3826786 C171.492084,56.9012251 171.846725,56.6433755 172.28752,56.6735923 L173.491694,56.6735923 C173.708085,56.6756067 173.884403,56.6937368 174.040685,56.7723003 C174.198971,56.8407916 174.319188,57.0341788 174.307166,57.2134648 C174.30917,57.3726063 174.263087,57.50556 174.180938,57.6989472 L169.446392,71.0023732 L168.843303,72.7408433 C168.294312,74.2516806 167.661169,75.7242433 167.166275,76.6549191 C166.619288,77.6843029 165.88396,78.1798575 164.812025,78.1798575 L164.767946,78.1798575 L164.507476,78.1798575 C164.240995,78.1778431 164.028611,78.1576986 163.852293,78.0146727 C163.673971,77.8635889 163.637906,77.6440139 163.637906,77.4063088 L163.637906,76.318506 C163.637906,75.8773415 163.840271,75.458336 164.28307,75.4563215 L164.539533,75.4563215 C164.759931,75.4422204 164.810022,75.4200614 164.988344,75.1158795 C165.266846,74.6646428 165.5734,73.9958455 165.863924,73.1820078 L166.489053,71.4616677 L161.047229,57.8298864 C160.933023,57.5680079 160.884936,57.4370687 160.884936,57.2718838 C160.876922,57.0885689 160.973095,56.8971962 161.127374,56.802517 C161.281652,56.7058235 161.463981,56.6756067 161.670354,56.6735923 L163.2472,56.6735923 C163.748105,56.6554622 164.132799,56.8971962 164.281067,57.344404 L168.140033,67.5717653 L171.365857,57.384693" id="Fill-38" fill="#006F51"></path>
                    <path d="M19.4305773,63.4614821 L19.3664616,23.9520796 C19.3664616,22.372751 20.290129,21.0895465 21.4402052,21.0814887 C22.4921041,21.0814887 23.3536594,22.1451182 23.5059343,23.5330741 L23.5460066,55.5305935 C23.5560247,57.1159654 24.4877066,58.3971555 25.6277647,58.3971555 C26.7357649,58.3991699 27.6333853,57.212659 27.7035119,55.7219662 L27.7035119,55.6857061 C27.7035119,55.6333304 27.7095228,55.5789403 27.7095228,55.5245501 L27.661436,23.7868947 C27.7115264,22.2760574 28.6171613,21.069402 29.7251615,21.0673876 C30.6728723,21.069402 31.4763227,21.951731 31.7267749,23.1523431 L31.7127495,16.544948 L31.6867025,16.544948 C31.6666663,10.3303706 35.5376544,3.1085683 40.9814818,0.151356106 C31.0735957,-0.056132216 21.0915758,3.4892993 13.3075237,10.8601708 C-2.47096019,25.7953011 -3.21630571,50.7503043 11.6345035,66.6140959 C15.4594084,70.7054433 19.9595322,73.7835224 24.7982673,75.8523623 C22.0252613,72.7037774 20.4584328,68.9266842 19.6469679,65.4980907 C19.5548015,65.0972152 19.4305773,63.922791 19.4305773,63.4614821" id="Fill-40" fill="#6CB33F"></path>
                    <path d="M60.7325372,15.9821107 L60.7986565,55.4874843 C60.8006601,57.0708418 59.8689782,58.3520318 58.7249129,58.3540462 C57.6790248,58.3560607 56.8174695,57.2924312 56.6671982,55.9064898 L56.6171078,23.9089704 C56.611097,22.321584 55.6774114,21.0464373 54.5293389,21.0363651 C53.4293532,21.0464373 52.5317327,22.2349627 52.4616062,23.7256555 L52.4616062,23.7518433 C52.4616062,23.8082479 52.4555953,23.8646525 52.4616062,23.9129993 L52.5076893,55.656698 C52.4495845,57.1715642 51.5439496,58.3701618 50.437953,58.3741907 C49.4842313,58.3762052 48.6867917,57.4898473 48.434336,56.2912497 L48.4764119,62.8281391 L48.4884336,62.890587 C48.4944445,68.9097628 44.8739086,75.8757299 39.6965622,79.0061848 C49.5102783,79.1270518 59.3760884,75.5876636 67.0940211,68.2852834 C82.8604834,53.354182 83.6038253,28.3951499 68.7550196,12.5333728 C64.7137241,8.22446482 59.9310903,5.03156201 54.7938163,2.96272214 C57.8773829,6.1616683 60.0212531,10.6780646 60.5221574,14.7130074 C60.6523925,15.0917239 60.7325372,15.5187873 60.7325372,15.9821107" id="Fill-43" fill="#BED9A8"></path>
                    <path d="M40.9810811,0.151758996 C35.5372537,3.10897119 31.6682692,10.328759 31.6742801,16.5493798 L31.690309,16.5775821 L31.7283777,23.152746 L31.7804718,55.5209241 C31.7864826,57.1042816 32.7201682,58.3895005 33.8642335,58.3814427 C34.6817092,58.3814427 35.3829752,57.728761 35.7175792,56.7799552 C35.7316045,56.7658541 35.7356118,56.7598107 35.7356118,56.7457096 C35.7756841,56.6127559 35.8197637,56.4757733 35.8458107,56.3307329 C35.8458107,56.2924584 35.8658469,56.2582127 35.8738613,56.2179237 C35.8918939,56.0950423 35.9039156,55.9701464 35.9159373,55.8412216 C35.9219481,55.7344558 35.9379771,55.6337333 35.9359735,55.5289819 L35.9139337,24.3755169 L35.9219481,23.7510375 C35.9700349,22.6592058 36.4729428,21.7365878 37.1561762,21.3175823 C37.178216,21.3095245 37.1902377,21.2934089 37.2022594,21.2833366 C37.23031,21.2732644 37.2383245,21.2692355 37.2623679,21.2571488 C37.4887766,21.1302384 37.7492468,21.0597327 38.0157279,21.0557038 C38.993493,21.0557038 39.8129724,21.9984663 40.0413847,23.2574973 L40.0634245,23.4186533 C40.0834607,23.5818237 40.0654281,23.7671531 40.0774498,23.9363669 L40.1275402,56.0104354 C40.2978477,57.3500445 41.1493849,58.3753994 42.1752368,58.3673416 C42.4397143,58.369356 42.6901664,58.2948214 42.922586,58.17194 C42.9346077,58.17194 42.9466294,58.17194 42.9546438,58.1699255 C42.97468,58.149781 42.9867017,58.1296365 43.0147523,58.1155354 C43.7320472,57.6683275 44.224937,56.6691605 44.224937,55.5128663 L44.2129153,24.1639997 L44.2309479,23.7329075 C44.2309479,23.690604 44.2429696,23.6422572 44.2469768,23.5999538 C44.250984,23.4730435 44.2710202,23.3441187 44.29306,23.2272806 C44.2970672,23.189006 44.3110925,23.152746 44.3150998,23.112457 C44.3431504,22.9734599 44.3812191,22.8264051 44.4252987,22.6894225 L44.439324,22.6612202 C44.7719245,21.7003277 45.4771976,21.0395882 46.3006842,21.0456315 C47.4487568,21.0395882 48.3824423,22.3268216 48.3824423,23.9101791 L48.4345363,56.2944728 C48.6869921,57.491056 49.4844316,58.369356 50.4381533,58.3733849 C51.5441499,58.369356 52.4497848,57.1727729 52.5078897,55.6599212 L52.4618065,23.9182368 C52.4557957,23.8638467 52.4618065,23.8074421 52.4618065,23.7510375 L52.4618065,23.7248497 C52.5319331,22.2281135 53.4295535,21.047646 54.5295393,21.0375737 C55.6756082,21.047646 56.6112973,22.3207782 56.6173082,23.9101791 L56.6673986,55.9097129 C56.8176699,57.2916254 57.6772216,58.3612982 58.7251133,58.3572693 C59.8691786,58.3552549 60.7988569,57.0740649 60.7988569,55.4886929 L60.7327375,15.977276 C60.7327375,15.5199959 60.6966724,15.0466003 60.6385675,14.6034213 C60.0354788,10.5805652 57.8775833,6.15884808 54.7940167,2.96393081 C50.3760412,1.18718615 45.6875774,0.240394784 40.9810811,0.151758996" id="Fill-45" fill="#006F51"></path>
                    <path d="M39.6955604,79.0063863 C45.1373842,76.0491741 48.5034608,69.0711202 48.4974499,62.8504995 L48.481421,62.8202827 L48.4433523,56.2471333 L48.3952654,23.8789551 C48.387251,22.297612 47.4515618,21.0103787 46.3074965,21.0184365 C45.4900208,21.0184365 44.7907585,21.6711182 44.4561544,22.619924 C44.4401255,22.6320107 44.4381219,22.6440974 44.4381219,22.6561841 C44.3960459,22.7851089 44.3559736,22.9261204 44.3259193,23.0671318 C44.3259193,23.1094353 44.3098904,23.1436809 44.2998723,23.1839699 C44.2778325,23.3048369 44.269818,23.4297328 44.2577963,23.5626865 C44.2517855,23.6674379 44.2317493,23.7681603 44.2377602,23.8708973 L44.2638072,55.0263767 L44.2517855,55.6508561 C44.2057023,56.7406734 43.7007908,57.6632914 43.0155538,58.082297 C42.993514,58.0923692 42.9814923,58.1084848 42.9694706,58.1185571 C42.9434236,58.1266149 42.9314019,58.1306438 42.9113657,58.1447449 C42.6829534,58.2716552 42.4244868,58.3401465 42.1600093,58.3461899 C41.1822442,58.3461899 40.3587576,57.401413 40.1323489,56.1403674 L40.1103091,55.9812259 C40.0922766,55.816041 40.1083055,55.6347405 40.100291,55.4655268 L40.0441898,23.3914582 C39.8758859,22.0498347 39.0223451,21.0244798 37.9984968,21.0325376 C37.7340194,21.0325376 37.4835672,21.1070723 37.2511477,21.2299537 C37.239126,21.2299537 37.2271043,21.2299537 37.2190898,21.2339826 C37.19705,21.2521126 37.1830247,21.2702427 37.1609849,21.2863583 C36.44369,21.7355806 35.946793,22.7327332 35.946793,23.8849984 L35.9568111,55.2378939 L35.9407821,55.6689862 C35.9407821,55.7112896 35.9307641,55.7596364 35.9247532,55.7999254 C35.920746,55.9308647 35.9027134,56.0557605 35.87867,56.1746131 C35.8766664,56.2128876 35.8646447,56.2471333 35.8586338,56.2894367 C35.8325868,56.4284337 35.7905109,56.5734741 35.7444277,56.7124711 L35.732406,56.738659 C35.3957983,57.6995515 34.6925287,58.360291 33.8730494,58.3582766 C32.7229732,58.360291 31.7932949,57.0730576 31.7932949,55.4897002 L31.7371937,23.1054064 C31.4867415,21.9088232 30.6872984,21.0325376 29.7355803,21.0264943 C28.6295837,21.0325376 27.7219452,22.2291208 27.6678475,23.739958 L27.7119271,55.4816424 C27.717938,55.538047 27.7119271,55.5904226 27.7119271,55.6468272 L27.7119271,55.6730151 C27.6397969,57.1717657 26.7401729,58.3562621 25.6441944,58.3623055 C24.4981254,58.3562621 23.5624363,57.0770865 23.5564254,55.4897002 L23.5083386,23.4921807 C23.3540601,22.1102682 22.496512,21.038581 21.4486203,21.0466388 C20.304555,21.0466388 19.3708695,22.3278288 19.3708695,23.9111863 L19.4389925,63.4226032 C19.4389925,63.8818977 19.4750576,64.3552934 19.5391733,64.7984723 C20.1382548,68.819314 21.7191086,72.6608696 24.798668,75.8537724 C29.2186471,77.6285026 34.9890641,78.9197649 39.6955604,79.0063863" id="Fill-47" fill="#FFFFFF"></path>
                    <path d="M89.8731429,26.9721426 C89.5786112,26.9701282 89.3461916,26.7263798 89.344188,26.4342846 L89.344188,7.4480959 C89.3461916,7.15398624 89.5786112,6.91225227 89.8731429,6.91023782 L99.8010651,6.91023782 C100.105615,6.91023782 100.360074,7.14794289 100.360074,7.4480959 L100.360074,8.92065865 C100.344045,9.24095615 100.085579,9.44844448 99.8010651,9.45650227 L92.5539824,9.45650227 L92.5539824,15.0627159 L98.3644717,15.0627159 C98.6630107,15.0647303 98.891423,15.3064643 98.8954302,15.6005739 L98.8954302,17.0429199 C98.891423,17.3370296 98.6569998,17.5787636 98.3644717,17.580778 L92.5539824,17.580778 L92.5539824,26.4342846 C92.5519788,26.7283942 92.3195592,26.9701282 92.0230239,26.9721426 L89.8731429,26.9721426 Z" id="Fill-1" fill="#006F51"></path>
                    <path d="M107.289383,11.558782 C109.501376,11.558782 111.298621,12.302114 112.530845,13.6779831 C113.759063,15.0518378 114.420256,17.0360708 114.420256,19.4876561 C114.420256,21.9251403 113.755055,23.92146 112.530845,25.3134447 C111.310643,26.703415 109.541449,27.4709204 107.387561,27.4709204 L107.379546,27.4709204 C105.177571,27.4729348 103.366301,26.7054295 102.118048,25.3194881 C100.867791,23.9315322 100.190568,21.9412559 100.190568,19.5158584 C100.190568,17.0783743 100.855769,15.0880979 102.08599,13.704171 C103.316211,12.3182296 105.105441,11.558782 107.289383,11.558782 M104.530403,23.8267808 C105.111452,24.562055 106.101238,24.983075 107.321441,24.983075 C109.914122,24.9649449 111.150353,23.2828794 111.180408,19.4876561 C111.150353,15.6924328 109.918129,14.0405841 107.289383,14.0204396 C104.662641,14.0405841 103.462475,15.6602016 103.42641,19.5460752 C103.430417,21.7095942 103.740978,22.8437294 104.528399,23.8267808" id="Fill-3" fill="#006F51"></path>
                    <path d="M122.932823,11.558782 C125.142813,11.558782 126.938054,12.302114 128.168275,13.6779831 C129.402503,15.0518378 130.057686,17.0360708 130.057686,19.4876561 C130.057686,21.9251403 129.396492,23.92146 128.172282,25.3134447 C126.952079,26.703415 125.178878,27.4709204 123.026993,27.4709204 L123.014972,27.4709204 C120.817004,27.4729348 119.005734,26.7054295 117.759484,25.3194881 C116.511231,23.9315322 115.832005,21.9412559 115.832005,19.5158584 C115.832005,17.0783743 116.493198,15.0880979 117.725423,13.704171 C118.951636,12.3182296 120.744874,11.558782 122.932823,11.558782 M120.167832,23.8267808 C120.750885,24.562055 121.742675,24.983075 122.95887,24.983075 C125.553554,24.9649449 126.79179,23.2828794 126.817837,19.4876561 C126.79179,15.6924328 125.557562,14.0405841 122.932823,14.0204396 C120.302074,14.0405841 119.099904,15.6602016 119.067846,19.5460752 C119.06985,21.7095942 119.378407,22.8437294 120.167832,23.8267808" id="Fill-5" fill="#006F51"></path>
                    <path d="M133.45562,25.0972943 C132.215381,23.7435841 131.524133,21.8076979 131.524133,19.4870518 C131.534151,14.8638897 134.485479,11.5702644 138.657009,11.5601921 C139.692879,11.564221 140.776836,11.7938683 141.446044,12.2471195 L141.718536,12.4445356 C141.866804,12.5291424 141.884836,12.5392147 141.942941,12.5412291 L141.942941,6.5925591 C141.948952,6.23398705 142.227455,5.94592074 142.588106,5.93786294 L144.393365,5.93786294 C144.774052,5.93786294 145.036526,6.256146 145.036526,6.5925591 L145.036526,26.3160364 C145.032519,26.6746084 144.754016,26.9667036 144.393365,26.972747 L142.904677,26.972747 C142.540019,26.972747 142.259513,26.6786373 142.233466,26.3079786 C142.135288,26.3220797 142.045126,26.3563254 141.928916,26.4207877 L141.678464,26.5356114 C140.780843,26.9949059 139.74297,27.2064231 138.624951,27.2064231 C136.485089,27.2084376 134.693855,26.44899 133.45562,25.0972943 L133.45562,25.0972943 Z M139.258094,14.050052 C137.839534,14.0520664 136.711497,14.5274766 135.916061,15.4762824 C135.068531,16.4653772 134.769992,17.4685732 134.763982,19.577702 C134.784018,22.8592406 136.416966,24.7024621 139.22804,24.7205922 C139.781038,24.7205922 140.338044,24.6339708 140.798876,24.4929594 C141.740576,24.1525174 141.918898,23.926899 141.942941,23.1372347 L141.942941,15.7200308 C141.928916,15.0411612 141.810703,14.8195718 141.413986,14.5476211 C140.889039,14.2253091 140.121653,14.050052 139.266109,14.050052 L139.258094,14.050052 Z" id="Fill-7" fill="#006F51"></path>
                    <path d="M88.8957785,45.7740091 C89.0660859,45.7719947 89.2243717,45.840486 89.478831,46.019772 C90.3724442,46.6623815 91.9593089,47.1317483 93.2296021,47.1297338 C95.2452408,47.1116038 96.4193604,46.0459599 96.4313821,44.3397209 C96.4313821,43.8663253 96.3492338,43.4211319 96.1969589,43.0484587 C95.950514,42.5287306 95.6860365,42.2487221 94.7122787,41.5416503 L91.3321768,39.1283395 C90.7170664,38.7113484 90.2161621,38.288314 89.8595183,37.8612506 C89.0981438,37.0171962 88.6593517,35.7642085 88.6553445,34.4507872 C88.6533408,32.8110252 89.2303825,31.4613438 90.2882923,30.5367114 C91.3441985,29.6080501 92.8609365,29.1124955 94.7222967,29.1124955 C96.1568865,29.1145099 97.7517657,29.4086196 98.8838093,29.9283476 C99.2063916,30.0250412 99.4047497,30.3131075 99.3526556,30.6817518 L99.3526556,32.3618029 C99.350652,32.5350455 99.3466448,32.6720281 99.2745146,32.8069963 C99.1963735,32.9540511 99.016048,33.0225424 98.879802,33.016499 C98.6894584,33.0225424 98.5311727,32.935921 98.3007567,32.7425339 C97.2989482,32.0274042 96.1408576,31.6305576 94.8645536,31.6305576 C92.9551065,31.6507021 91.875157,32.5995079 91.8631353,34.1546631 C91.875157,35.1195845 92.2017466,35.6896738 93.3498191,36.5095549 L96.8781886,38.9530824 C99.0280697,40.4316885 99.9357082,41.8861212 99.9256901,43.9267587 C99.9256901,45.6591855 99.2825291,47.103546 98.1344565,48.1006986 C96.986384,49.0978512 95.3454216,49.647796 93.3738625,49.647796 C91.9092185,49.6457815 90.1821006,49.383903 89.0801113,48.926623 C88.6192793,48.7795681 88.3427802,48.5035885 88.3668236,48.1087564 L88.3668236,46.3440984 C88.3708308,46.0620755 88.5772034,45.7760236 88.8957785,45.7740091" id="Fill-9" fill="#006F51"></path>
                    <path d="M100.797063,36.7246981 C100.438416,36.7166403 100.159913,36.4265595 100.153902,36.0700019 L100.153902,34.8915488 C100.159913,34.5349912 100.438416,34.242896 100.797063,34.2348382 L102.16353,34.2348382 L102.16353,30.9754586 C102.167537,30.6390455 102.426004,30.3207624 102.808695,30.3207624 L104.613954,30.3207624 C104.970597,30.3268058 105.253107,30.6168865 105.257115,30.9754586 L105.257115,34.2348382 L109.176189,34.2348382 C109.53083,34.242896 109.81334,34.5349912 109.823358,34.8915488 L109.823358,36.0700019 C109.823358,36.4507329 109.512797,36.7226836 109.176189,36.7246981 L105.257115,36.7226836 L105.257115,45.0484043 C105.297187,46.6156462 105.760022,47.1212731 107.108457,47.1595477 C107.593332,47.1615621 108.076204,47.0467385 108.470916,46.8332068 L108.809528,46.645863 C108.967813,46.5814006 109.102056,46.5390971 109.232291,46.5390971 C109.402598,46.5370827 109.568898,46.6136318 109.671083,46.7465855 C109.775271,46.8775247 109.823358,47.044724 109.823358,47.2260245 L109.823358,48.2836106 C109.847401,48.5978648 109.687112,48.8980178 109.388573,49.0027692 C108.61718,49.4137169 107.370931,49.6453786 106.30701,49.6473931 C105.018684,49.6473931 103.978807,49.2868066 103.259508,48.5998792 C102.538206,47.9069085 102.161526,46.8996836 102.16353,45.6628115 L102.16353,36.7246981 L100.797063,36.7246981" id="Fill-11" fill="#006F51"></path>
                    <path d="M110.944381,45.3983143 C110.940374,44.008344 111.615593,42.7815441 112.81576,42.0140387 C113.821575,41.3492703 115.320281,40.6704008 116.855052,40.1647739 L118.942821,39.4597165 C119.563942,39.2018669 119.614032,39.1353901 119.638076,38.7486157 L119.638076,38.0999629 C119.612029,36.953741 119.049012,36.5246632 117.382003,36.4904176 C115.903334,36.4863887 114.204266,36.9275532 113.198451,37.5701626 C112.950002,37.7494487 112.767673,37.8199544 112.563304,37.8139111 C112.397004,37.8159255 112.230704,37.7635498 112.114494,37.6426828 C111.994277,37.5218158 111.94619,37.356631 111.950197,37.1894316 L111.950197,36.0109785 C111.934168,35.5980164 112.030342,35.2736899 112.330884,35.0923895 C113.284606,34.4880546 115.845229,34.0086155 117.754676,34.0005577 C119.361577,34.0005577 120.60983,34.3450286 121.471385,35.0581438 C122.328933,35.7732735 122.761715,36.8530185 122.757707,38.2188154 L122.757707,48.7543875 C122.755704,49.1129596 122.477201,49.4050548 122.11655,49.4110981 L120.655913,49.4110981 C120.437519,49.4110981 120.235154,49.3587224 120.096904,49.2056242 C119.976687,49.0686417 119.932607,48.8974134 119.924593,48.7100696 C119.738257,48.7181274 119.636072,48.7483442 119.36358,48.8611533 L118.848651,49.096844 C118.109316,49.4413149 116.899131,49.6427598 115.94541,49.6447743 C113.030147,49.6407454 110.948389,47.9183909 110.944381,45.3983143 M116.963247,42.6002436 L116.963247,42.6002436 C114.641055,43.426168 114.20627,43.8995637 114.182227,45.2834906 C114.204266,46.5485651 114.903529,47.1267121 116.608607,47.1589433 C117.438104,47.1589433 118.275616,46.9877151 118.924788,46.7077066 C119.543906,46.3712935 119.608021,46.2987733 119.638076,45.4305455 L119.638076,41.6413655 L116.969258,42.5982291" id="Fill-13" fill="#006F51"></path>
                    <path d="M127.624894,34.9709182 C127.847295,34.9709182 127.969516,34.9286147 128.382261,34.7513431 C128.75293,34.6042883 128.945277,34.5156525 129.073509,34.4854358 C129.959108,34.1530516 130.848714,33.9999534 131.78841,33.9999534 C133.377278,33.9979389 134.701669,34.495508 135.625336,35.4100682 C136.544997,36.3226139 137.055919,37.6420785 137.053915,39.2496094 L137.053915,48.7537832 C137.045901,49.1123552 136.767398,49.4064649 136.408751,49.4104938 L134.571434,49.4104938 C134.210783,49.4064649 133.93228,49.1123552 133.928273,48.7537832 L133.928273,39.6605571 C133.894211,37.4325757 133.008613,36.5240589 130.842703,36.4877988 C130.145444,36.4877988 129.452192,36.6026224 128.883165,36.8262264 C128.089733,37.1565961 127.917422,37.420489 127.897386,38.1295753 L127.897386,48.7537832 C127.891375,49.1123552 127.614876,49.4064649 127.256228,49.4104938 L125.446962,49.4104938 C125.088315,49.4064649 124.811815,49.1123552 124.803801,48.7537832 L124.803801,34.8903402 C124.811815,34.535797 125.088315,34.2416874 125.446962,34.235644 L126.851498,34.235644 C127.095939,34.2396729 127.292293,34.2537741 127.446572,34.4129156 C127.59484,34.5700427 127.608865,34.7614154 127.610868,34.9709182 L127.624894,34.9709182" id="Fill-15" fill="#006F51"></path>
                    <path d="M140.675854,47.5366526 C139.437619,46.1829424 138.748374,44.2490707 138.748374,41.9284246 C138.756389,37.303248 141.711724,34.0096227 145.881251,34.0015649 C146.915117,34.0055938 147.999074,34.2332267 148.670286,34.6864779 L148.944781,34.8818795 C149.089042,34.9664864 149.107074,34.9765586 149.167183,34.9805875 L149.167183,29.0339319 C149.17119,28.6773743 149.451696,28.3852791 149.812347,28.3772213 L151.617606,28.3772213 C151.99629,28.3772213 152.262771,28.6934899 152.262771,29.0339319 L152.262771,48.7533803 C152.25676,49.1139668 151.976254,49.406062 151.617606,49.4121053 L150.126915,49.4121053 C149.762257,49.4121053 149.479747,49.1179957 149.4537,48.7473369 C149.35953,48.7614381 149.267364,48.7976982 149.151154,48.8621606 L148.902705,48.9769842 C148.005085,49.4362787 146.967211,49.6457815 145.851197,49.6457815 C143.707326,49.647796 141.9201,48.8923773 140.675854,47.5366526 L140.675854,47.5366526 Z M146.482336,36.4894104 C145.063775,36.4934393 143.931731,36.9648205 143.138299,37.9176552 C142.29678,38.90675 141.99223,39.909946 141.986219,42.0170604 C142.008259,45.3006135 143.639203,47.143835 146.454285,47.1599506 C147.003276,47.1599506 147.560282,47.0753437 148.023117,46.9303033 C148.966821,46.5898613 149.139132,46.3702863 149.167183,45.5765931 L149.167183,38.1593892 C149.153157,37.4825341 149.034944,37.2589302 148.636224,36.9869794 C148.117287,36.6646675 147.345895,36.4894104 146.49035,36.4894104 L146.482336,36.4894104 Z" id="Fill-17" fill="#006F51"></path>
                    <path d="M153.728617,45.3983143 C153.72461,44.008344 154.403836,42.7815441 155.604003,42.0140387 C156.603808,41.3492703 158.108524,40.6704008 159.641291,40.1647739 L161.731064,39.4597165 C162.350181,39.2018669 162.404279,39.1353901 162.422311,38.7486157 L162.422311,38.0999629 C162.398268,36.953741 161.833248,36.5246632 160.168242,36.4904176 C158.689573,36.4863887 156.988502,36.9275532 155.98469,37.5701626 C155.732234,37.7494487 155.553912,37.8199544 155.349543,37.8139111 C155.18124,37.8159255 155.014939,37.7635498 154.896726,37.6426828 C154.778512,37.5218158 154.730426,37.356631 154.730426,37.1894316 L154.730426,36.0109785 C154.722411,35.5980164 154.816581,35.2736899 155.119127,35.0923895 C156.068842,34.4880546 158.631468,34.0086155 160.540915,34.0005577 C162.147816,34.0005577 163.398073,34.3450286 164.255621,35.0581438 C165.115173,35.7732735 165.549958,36.8530185 165.54595,38.2188154 L165.54595,48.7543875 C165.541943,49.114974 165.259433,49.4050548 164.902789,49.4110981 L163.440149,49.4110981 C163.223758,49.4110981 163.021393,49.3587224 162.883143,49.2056242 C162.762926,49.0686417 162.718847,48.8974134 162.710832,48.7100696 C162.524496,48.7181274 162.422311,48.7483442 162.147816,48.8611533 L161.636894,49.096844 C160.895555,49.4413149 159.687374,49.6427598 158.733652,49.6447743 C155.816386,49.6407454 153.734628,47.9183909 153.728617,45.3983143 M159.749486,42.6002436 L159.749486,42.6002436 C157.429298,43.426168 156.990506,43.8995637 156.966462,45.2834906 C156.988502,46.5485651 157.689768,47.1267121 159.394846,47.1589433 C160.226347,47.1589433 161.061855,46.9877151 161.711027,46.7077066 C162.330145,46.3712935 162.396264,46.2987733 162.422311,45.4305455 L162.422311,41.6413655 L159.753494,42.5982291" id="Fill-19" fill="#006F51"></path>
                    <path d="M168.08854,49.4112996 C167.727889,49.4052562 167.45139,49.113161 167.447383,48.754589 L167.447383,34.8911459 C167.45139,34.5325739 167.727889,34.2424931 168.08854,34.2344353 L169.551181,34.2344353 C169.751542,34.2344353 169.937879,34.2767388 170.074125,34.4096925 C170.214378,34.5446606 170.252447,34.72999 170.252447,34.9193482 L170.252447,35.2013712 C170.406725,35.1933134 170.504902,35.1610822 170.777394,35.0240996 C171.937489,34.4278225 172.718899,34.2324209 173.917062,34.2344353 C174.427984,34.2384642 174.770603,34.2706954 175.033077,34.429837 C175.307572,34.5930074 175.395731,34.8992037 175.387717,35.2154724 L175.387717,36.5409803 C175.387717,36.8914945 175.171326,37.2540955 174.776614,37.2561099 C174.722516,37.252081 174.628346,37.2621533 174.516144,37.2158209 L174.385909,37.1916475 C173.860961,37.0768239 173.059514,36.9881881 172.478465,36.9881881 C170.801438,37.0385494 170.438783,37.314529 170.396707,38.5131266 L170.396707,48.754589 C170.396707,49.0930165 170.150262,49.4092851 169.7836,49.4112996 L168.08854,49.4112996 Z" id="Fill-21" fill="#006F51"></path>
                    <path d="M177.245671,47.5366526 C176.001425,46.1829424 175.314184,44.2490707 175.314184,41.9284246 C175.324202,37.303248 178.27553,34.0096227 182.44105,34.0015649 C183.478924,34.0055938 184.560877,34.2332267 185.236096,34.6864779 L185.508588,34.8818795 C185.650844,34.9664864 185.670881,34.9765586 185.728985,34.9805875 L185.728985,29.0339319 C185.734996,28.6753599 186.015503,28.3852791 186.37415,28.3772213 L188.181413,28.3772213 C188.560096,28.3772213 188.82257,28.6955044 188.824574,29.0339319 L188.824574,48.7533803 C188.818563,49.1119523 188.538056,49.406062 188.181413,49.4121053 L186.690722,49.4121053 C186.328067,49.4121053 186.043553,49.1179957 186.01951,48.7473369 C185.921333,48.7614381 185.833174,48.7956837 185.71496,48.8601461 L185.468515,48.9769842 C184.566888,49.4362787 183.531018,49.6457815 182.415003,49.6457815 C180.269129,49.647796 178.481903,48.8923773 177.245671,47.5366526 L177.245671,47.5366526 Z M183.046142,36.4894104 C181.627581,36.4934393 180.495538,36.9648205 179.706113,37.9176552 C178.858583,38.90675 178.55804,39.909946 178.550026,42.0170604 C178.576073,45.3006135 180.20301,47.143835 183.016088,47.1599506 C183.567083,47.1599506 184.124088,47.0753437 184.586924,46.9303033 C185.528624,46.5898613 185.704942,46.3702863 185.728985,45.5765931 L185.728985,38.1593892 C185.716964,37.4825341 185.600754,37.2589302 185.200031,36.9869794 C184.677087,36.6646675 183.911705,36.4894104 183.052153,36.4894104 L183.048146,36.4894104 L183.046142,36.4894104 Z" id="Fill-23" fill="#006F51"></path>
                    <path d="M193.298049,42.7601909 C192.176024,42.1135525 191.713188,41.7690816 191.246346,41.2513681 C190.571127,40.5583974 190.236523,39.6095915 190.238526,38.4512829 C190.236523,37.0935438 190.71138,35.965452 191.578946,35.1919033 C192.444509,34.4163401 193.682744,34.0013635 195.183453,34.0013635 C196.301471,33.9993491 197.201095,34.2148952 198.259005,34.6661319 C198.816011,34.8877214 199.074477,35.1576576 199.042419,35.5968077 L199.042419,36.9525323 C199.040416,37.2607432 198.868105,37.6072285 198.511461,37.609243 C198.299077,37.6072285 198.136784,37.5145638 197.916387,37.3695234 C196.748278,36.6745383 196.159214,36.4952523 195.157406,36.4912234 C193.89112,36.5194257 193.352147,36.9767057 193.332111,37.9819162 C193.332111,38.4573263 193.506426,38.8642451 193.835019,39.150297 C194.067438,39.3618142 194.430093,39.5934759 195.147388,40.0064381 L196.237356,40.6530765 C197.445537,41.3621628 197.998535,41.793255 198.451352,42.3855033 C199.002347,43.1107052 199.324929,44.1441179 199.324929,45.1352271 C199.324929,46.4949807 198.824025,47.6412026 197.920394,48.4288524 C197.018766,49.2165023 195.738455,49.6455801 194.205688,49.6455801 C193.005521,49.6455801 191.941601,49.4340628 190.795532,48.9828261 C190.180421,48.76728 189.911937,48.4771992 189.948002,47.9937313 L189.948002,46.7266424 C189.952009,46.5513853 189.98006,46.3902293 190.076233,46.2532467 C190.1684,46.1182786 190.336703,46.0336717 190.507011,46.0377006 C190.683329,46.0336717 190.853637,46.0981341 191.017933,46.2190011 C192.111908,46.8797406 193.073644,47.1597491 194.065435,47.1597491 C195.500025,47.1375902 196.221327,46.5332552 196.233348,45.4877558 C196.227337,44.7464383 195.872697,44.220667 195.051214,43.7613724 L194.21771,43.2920056 L193.298049,42.7601909" id="Fill-25" fill="#006F51"></path>
                    <path d="M100.686664,71.4681139 L98.5548154,64.6995629 L92.0630963,64.6995629 L89.9011935,71.4701284 C89.8350741,71.7199202 89.6206871,71.8468305 89.4163182,71.8488449 L87.7192546,71.8488449 C87.5569616,71.8488449 87.4147048,71.8327293 87.2844697,71.7420791 C87.1542346,71.6453855 87.1021406,71.4822151 87.1081514,71.3432181 L87.1081514,71.2545823 L87.1081514,71.2142933 L87.1201731,71.1780332 L87.2323757,70.8899669 L93.3734618,53.0217978 L93.5718199,52.4658097 C93.7441309,51.8070846 94.1628869,51.512975 94.9242613,51.5512495 L96.1264315,51.5512495 C96.6373539,51.5512495 96.913853,51.5794518 97.1522835,51.7829112 C97.4347934,51.9803273 97.5810575,52.391275 97.7914373,52.99561 L103.732162,70.863779 L103.806296,71.1075274 C103.876422,71.2183222 103.852379,71.2948713 103.85839,71.3432181 C103.8644,71.5084029 103.766223,71.6776167 103.62597,71.7541658 C103.489724,71.8327293 103.337449,71.8488449 103.159127,71.8488449 L101.205601,71.8488449 L101.197586,71.8488449 L101.195583,71.8488449 C100.965167,71.8488449 100.768812,71.6856745 100.686664,71.4681139 L100.686664,71.4681139 Z M92.8304816,62.4171913 L97.8154807,62.4171913 L95.3229811,54.5064473 L92.8304816,62.4171913 Z" id="Fill-27" fill="#006F51"></path>
                    <path d="M105.199611,77.0747304 C104.574482,76.8430687 104.269932,76.5409012 104.293976,76.05139 L104.293976,74.8165323 C104.297983,74.4680325 104.496341,74.1014026 104.883039,74.1014026 C105.067372,74.1034171 105.219647,74.1799662 105.357897,74.246443 L105.728566,74.447888 C106.830555,75.048194 108.537637,75.4571273 109.928147,75.4551128 C111.22048,75.4571273 112.358534,75.1650321 113.077833,74.6714919 C113.69094,74.2202552 113.989479,73.52527 113.995489,72.1091118 L113.995489,70.9528177 C113.953413,70.9689333 113.901319,70.9951211 113.809153,71.0374246 C112.7272,71.6054994 111.71337,71.8512623 110.617391,71.8512623 C108.517601,71.8532767 106.7444,71.0938292 105.510171,69.7602635 C104.27394,68.4287122 103.576681,66.5311006 103.576681,64.2769313 C103.576681,61.9804586 104.32403,60.0163701 105.626381,58.6304287 C106.924725,57.2404584 108.774064,56.4387074 110.935966,56.4387074 C111.819561,56.4387074 112.649059,56.5897912 113.328285,56.8778575 C113.506607,56.9685077 113.771084,57.1195914 114.073631,57.3170075 C114.199858,57.3814699 114.227909,57.3995999 114.280003,57.4056433 L114.280003,57.3915421 C114.280003,57.1860683 114.318072,57.0067823 114.442296,56.8637563 C114.564517,56.7247593 114.746846,56.674398 114.92116,56.6764125 L116.439902,56.6764125 C116.824597,56.6764125 117.08707,56.9926811 117.089074,57.3290942 L117.089074,71.9600426 C117.089074,73.8898854 116.469956,75.4047516 115.265783,76.4240631 C114.063612,77.4413603 112.314455,77.9449727 110.072407,77.9449727 C108.411409,77.9449727 106.501962,77.6206463 105.199611,77.0747304 M113.562708,59.5369311 C113.043771,59.1582146 112.194238,58.9265528 111.222484,58.9305817 C108.411409,58.9466973 106.836566,60.7798466 106.81653,64.19031 C106.830555,67.3811983 108.503575,69.3513302 111.164379,69.3614024 C111.987865,69.3634169 112.883482,69.135784 113.472545,68.8275732 C113.915345,68.5636803 113.97345,68.4609434 113.995489,67.8968975 L113.995489,60.4212745 C113.969442,59.8390986 113.967439,59.8390986 113.568719,59.5389456" id="Fill-29" fill="#006F51"></path>
                    <path d="M120.823616,70.0084437 C119.581373,68.6688346 118.900144,66.7470496 118.900144,64.4264035 C118.900144,62.0030205 119.533286,60.0107297 120.695384,58.614716 C121.857482,57.2146735 123.550539,56.4370959 125.596232,56.4391103 C127.509686,56.4391103 129.120594,57.1240232 130.236609,58.3387364 C131.35663,59.5514351 131.979755,61.2758041 131.979755,63.3345717 L131.979755,64.1302794 C131.979755,64.4687069 131.717281,64.7890044 131.334591,64.7890044 L121.995732,64.7890044 C122.025786,67.7059276 123.77294,69.5874237 126.45979,69.5974959 C127.407501,69.5995104 128.707849,69.2026638 129.835885,68.531852 L130.030236,68.4351584 C130.214569,68.3022047 130.404912,68.2780314 130.535147,68.2760169 C130.901809,68.2760169 131.150258,68.6063867 131.150258,68.9589154 L131.150258,70.1091662 C131.186323,70.6067352 130.941882,70.9330761 130.392891,71.1264633 C129.126605,71.7287837 127.497664,72.0853413 126.029013,72.0873558 C123.861099,72.0873558 122.063855,71.3440238 120.823616,70.0084437 L120.823616,70.0084437 Z M128.884167,62.2991446 L128.884167,62.2185666 C128.874149,60.236348 127.537736,58.9128546 125.486033,58.8987534 C123.542524,58.9068112 122.129974,60.2826804 122.00575,62.2991446 L128.884167,62.2991446 Z" id="Fill-31" fill="#006F51"></path>
                    <path d="M136.531572,57.4120895 C136.747963,57.4100751 136.876195,57.3697861 137.286936,57.1925145 C137.657605,57.0454597 137.847949,56.9568239 137.978184,56.9245927 C138.859775,56.5942229 139.751385,56.4411248 140.691081,56.4411248 C142.283957,56.4391103 143.608348,56.934665 144.528008,57.8492251 C145.449672,58.7617709 145.954583,60.0832499 145.954583,61.6887663 L145.954583,71.196969 C145.950576,71.5535266 145.672073,71.8456218 145.315429,71.8516652 L143.476109,71.8516652 C143.117462,71.8456218 142.836955,71.5555411 142.834952,71.196969 L142.834952,62.099714 C142.796883,59.8737471 141.911284,58.9652303 139.745374,58.9309846 C139.052123,58.9289702 138.356868,59.0458083 137.783833,59.2694122 C136.994408,59.5977675 136.822097,59.8636749 136.804064,60.5667178 L136.804064,71.196969 C136.798053,71.5555411 136.515543,71.8436074 136.1589,71.8516652 L134.351637,71.8516652 C133.99299,71.8456218 133.712483,71.5555411 133.708476,71.196969 L133.708476,57.3315115 C133.712483,56.9729395 133.99299,56.6828587 134.351637,56.6748009 L135.756173,56.6748009 C136.000614,56.6788298 136.194965,56.6989743 136.353251,56.8500581 C136.499515,57.011214 136.511536,57.2005723 136.515543,57.4120895 L136.531572,57.4120895" id="Fill-33" fill="#006F51"></path>
                    <path d="M159.260003,68.4798792 C159.624661,68.487937 159.843055,68.8344224 159.843055,69.2252256 L159.843055,70.4016643 C159.867099,70.7844097 159.686773,71.094635 159.354173,71.2396753 C158.326317,71.7654467 156.651293,72.0837298 155.126541,72.0857442 C152.830396,72.0877587 150.971039,71.372629 149.698742,70.0269766 C148.418431,68.6853531 147.739205,66.7293224 147.739205,64.3079538 C147.739205,61.8946431 148.472529,59.9204823 149.820963,58.552671 C151.171401,57.1868741 153.118917,56.4374988 155.501217,56.4374988 C156.761492,56.4374988 158.025775,56.6812472 159.187872,57.1888885 C159.608632,57.3198277 159.865095,57.6018507 159.843055,57.9503505 L159.843055,59.332263 C159.843055,59.6827773 159.642693,60.0453782 159.260003,60.0453782 C159.069659,60.0494071 158.93742,59.9849447 158.696986,59.8439332 C157.506838,59.1791648 156.615228,58.9313875 155.443112,58.9313875 C152.567922,58.951532 151.003097,60.7524501 150.97705,64.1911157 C151.003097,67.686186 152.632038,69.5817832 155.501217,69.5999133 C156.521058,69.5999133 157.576964,69.3158758 158.60482,68.729671 L158.725037,68.6833386 C158.90937,68.5584428 159.07567,68.4839081 159.260003,68.4798792" id="Fill-35" fill="#006F51"></path>
                </g>
            </g>
        </g>
    </g>
</svg>