<?xml version="1.0" encoding="utf-8"?>
<!-- Generator: Adobe Illustrator 21.1.0, SVG Export Plug-In . SVG Version: 6.00 Build 0)  -->
<svg version="1.1" id="Layer_1" xmlns="http://www.w3.org/2000/svg" xmlns:xlink="http://www.w3.org/1999/xlink" x="0px" y="0px"
	 viewBox="0 0 140 52.8" style="enable-background:new 0 0 140 52.8;" xml:space="preserve">
<path style="fill:#6CB33F;" d="M27.1,0C20.4-0.1,13.7,2.2,8.4,7.2c-10.6,10-11.1,26.7-1.1,37.3c2.6,2.7,5.6,4.8,8.9,6.2
	c-1.9-2.1-2.9-4.6-3.5-6.9c-0.1-0.3-0.1-1.1-0.1-1.4l0-26.4c0-1.1,0.6-1.9,1.4-1.9c0.7,0,1.3,0.7,1.4,1.6l0,21.4
	c0,1.1,0.6,1.9,1.4,1.9c0.7,0,1.3-0.8,1.4-1.8v0c0,0,0-0.1,0-0.1l0-21.2c0-1,0.6-1.8,1.4-1.8c0.6,0,1.2,0.6,1.3,1.4l0-4.4h0
	C20.8,6.8,23.4,2,27.1,0z"/>
<path style="fill:#BED9A7;" d="M45.7,8.3c-2.7-2.9-5.9-5-9.4-6.4c2.1,2.1,3.5,5.2,3.9,7.9c0.1,0.3,0.1,0.5,0.1,0.8l0,26.4
	c0,1.1-0.6,1.9-1.4,1.9c-0.7,0-1.3-0.7-1.4-1.6l0-21.4c0-1.1-0.6-1.9-1.4-1.9c-0.7,0-1.3,0.8-1.4,1.8v0c0,0,0,0.1,0,0.1l0,21.2
	c0,1-0.6,1.8-1.4,1.8c-0.6,0-1.2-0.6-1.3-1.4l0,4.4l0,0c0,4-2.4,8.7-5.9,10.8c6.6,0.1,13.2-2.3,18.4-7.2
	C55.2,35.6,55.7,18.9,45.7,8.3z"/>
<path style="fill:#006F51;" d="M40.3,10.6c0-0.3,0-0.6-0.1-0.9C39.9,7,38.4,4,36.4,1.9c-3-1.2-6.1-1.8-9.3-1.9
	c-3.7,2-6.3,6.8-6.3,11l0,0l0,4.4l0,21.7c0,1.1,0.6,1.9,1.4,1.9c0.5,0,1-0.4,1.2-1.1c0,0,0,0,0,0c0-0.1,0.1-0.2,0.1-0.3
	c0,0,0,0,0-0.1c0-0.1,0-0.2,0-0.3c0-0.1,0-0.1,0-0.2l0-20.8l0-0.4c0-0.7,0.4-1.3,0.8-1.6c0,0,0,0,0,0c0,0,0,0,0,0
	c0.2-0.1,0.3-0.1,0.5-0.1c0.7,0,1.2,0.6,1.4,1.5l0,0.1c0,0.1,0,0.2,0,0.3l0,21.5c0.1,0.9,0.7,1.6,1.4,1.6c0.2,0,0.3,0,0.5-0.1
	c0,0,0,0,0,0c0,0,0,0,0,0c0.5-0.3,0.8-1,0.8-1.7l0-21l0-0.3c0,0,0-0.1,0-0.1c0-0.1,0-0.2,0-0.2c0,0,0,0,0-0.1c0-0.1,0-0.2,0.1-0.3
	l0,0c0.2-0.6,0.7-1.1,1.3-1.1c0.8,0,1.4,0.9,1.4,1.9l0,21.7c0.2,0.8,0.7,1.4,1.3,1.4c0.7,0,1.4-0.8,1.4-1.8l0-21.2c0,0,0-0.1,0-0.1
	v0c0-1,0.7-1.8,1.4-1.8c0.8,0,1.4,0.9,1.4,1.9l0,21.4c0.1,0.9,0.7,1.6,1.4,1.6c0.8,0,1.4-0.9,1.4-1.9L40.3,10.6z"/>
<path style="fill:#FFFFFF;" d="M32.1,41.9l0-4.4l0-21.7c0-1.1-0.6-1.9-1.4-1.9c-0.5,0-1,0.4-1.2,1.1c0,0,0,0,0,0
	c0,0.1-0.1,0.2-0.1,0.3c0,0,0,0,0,0.1c0,0.1,0,0.2,0,0.3c0,0.1,0,0.1,0,0.2l0,20.8l0,0.4c0,0.7-0.4,1.3-0.8,1.6c0,0,0,0,0,0
	c0,0,0,0,0,0c-0.2,0.1-0.3,0.1-0.5,0.1c-0.7,0-1.2-0.6-1.4-1.5l0-0.1c0-0.1,0-0.2,0-0.3l0-21.5c-0.1-0.9-0.7-1.6-1.4-1.6
	c-0.2,0-0.3,0-0.5,0.1c0,0,0,0,0,0c0,0,0,0,0,0c-0.5,0.3-0.8,1-0.8,1.7l0,21l0,0.3c0,0,0,0.1,0,0.1c0,0.1,0,0.2,0,0.2c0,0,0,0,0,0.1
	c0,0.1,0,0.2-0.1,0.3l0,0c-0.2,0.6-0.7,1.1-1.3,1.1c-0.8,0-1.4-0.9-1.4-1.9l0-21.7c-0.2-0.8-0.7-1.4-1.3-1.4c-0.7,0-1.4,0.8-1.4,1.8
	l0,21.2c0,0,0,0.1,0,0.1v0c0,1-0.7,1.8-1.4,1.8c-0.8,0-1.4-0.9-1.4-1.9l0-21.4c-0.1-0.9-0.7-1.6-1.4-1.6c-0.8,0-1.4,0.9-1.4,1.9
	l0,26.4c0,0.3,0,0.6,0.1,0.9c0.4,2.7,1.5,5.3,3.5,7.4c3,1.2,6.9,2.1,10,2.1C29.9,50.8,32.1,46.1,32.1,41.9L32.1,41.9z"/>
<g>
	<g>
		<path style="fill:#FFFFFF;" d="M67.3,16.1l-1.5-4.5h-4.5l-1.5,4.5l0,0c0,0.1-0.2,0.2-0.3,0.2l0,0h-1.2c-0.1,0-0.2,0-0.3-0.1l0,0
			c-0.1-0.1-0.1-0.1-0.1-0.2l0,0c0,0,0,0,0-0.1l0,0v0l0,0l0.1-0.2l4.2-11.9l0.1-0.4c0.1-0.4,0.4-0.6,0.9-0.6l0,0h0.8
			c0.3,0,0.5,0,0.7,0.1l0,0c0.2,0.1,0.3,0.4,0.4,0.8l0,0l4.1,11.9l0.1,0.2c0,0.1,0,0.1,0,0.1l0,0c0,0.2-0.2,0.3-0.4,0.3l0,0h-1.3h0
			l0,0C67.5,16.3,67.4,16.2,67.3,16.1L67.3,16.1z M61.9,10.1h3.5l-1.8-5.5L61.9,10.1L61.9,10.1z"/>
	</g>
	<g>
		<path style="fill:#FFFFFF;" d="M72.1,11.9c-0.8-0.4-1.1-0.7-1.4-1l0,0C70.2,10.4,70,9.8,70,9l0,0c0-1.8,1.3-2.9,3.3-2.9l0,0
			c0.8,0,1.4,0.1,2.1,0.4l0,0c0.4,0.2,0.5,0.3,0.5,0.6l0,0V8c0,0.2-0.1,0.4-0.3,0.4l0,0c-0.1,0-0.2-0.1-0.4-0.1l0,0
			c-0.8-0.5-1.2-0.6-1.9-0.6l0,0c-0.9,0-1.3,0.3-1.3,1l0,0c0,0.3,0.1,0.6,0.4,0.8l0,0c0.2,0.1,0.4,0.3,0.9,0.6l0,0l0.7,0.4
			c0.8,0.5,1.2,0.8,1.5,1.1l0,0c0.4,0.5,0.6,1.2,0.6,1.8l0,0c0,1.8-1.4,3-3.4,3l0,0c-0.8,0-1.5-0.1-2.3-0.4l0,0
			c-0.4-0.2-0.6-0.3-0.5-0.6l0,0v-0.8c0-0.2,0.1-0.4,0.3-0.4l0,0c0.1,0,0.2,0,0.3,0.1l0,0c0.8,0.4,1.4,0.6,2.1,0.6l0,0
			c1,0,1.5-0.4,1.5-1.2l0,0c0-0.5-0.3-0.9-0.8-1.2l0,0l-0.6-0.3L72.1,11.9"/>
	</g>
	<g>
		<path style="fill:#FFFFFF;" d="M77.8,16.3c-0.2,0-0.4-0.2-0.4-0.4l0,0V6.7c0-0.2,0.2-0.4,0.4-0.4l0,0H79c0.2,0,0.4,0.2,0.4,0.4
			l0,0v9.2c0,0.2-0.2,0.4-0.4,0.4l0,0H77.8L77.8,16.3z M78.4,2.4c0.4,0,0.7,0.1,0.9,0.3l0,0c0.2,0.2,0.3,0.5,0.3,0.9l0,0
			c0,0.4-0.1,0.7-0.3,0.9l0,0c-0.2,0.2-0.5,0.3-0.9,0.3l0,0h0l0,0c-0.4,0-0.7-0.1-0.9-0.3l0,0c-0.2-0.2-0.3-0.5-0.3-0.9l0,0
			C77.2,2.8,77.7,2.4,78.4,2.4L78.4,2.4"/>
	</g>
	<g>
		<path style="fill:#FFFFFF;" d="M80.6,13.7c0-0.9,0.5-1.7,1.3-2.2l0,0c0.7-0.4,1.7-0.9,2.7-1.2l0,0L86,9.8c0.4-0.2,0.5-0.2,0.5-0.5
			l0,0V8.8c0-0.8-0.4-1.1-1.6-1.1l0,0c-1,0-2.2,0.3-2.9,0.7l0,0c-0.2,0.1-0.3,0.2-0.4,0.2l0,0c-0.1,0-0.2,0-0.3-0.1l0,0
			c-0.1-0.1-0.1-0.2-0.1-0.3l0,0V7.4c0-0.3,0.1-0.5,0.2-0.6l0,0c0.6-0.4,2.4-0.7,3.7-0.7l0,0c1.1,0,1.9,0.2,2.5,0.7l0,0
			c0.6,0.5,0.9,1.2,0.9,2.1l0,0v7c0,0.2-0.2,0.4-0.4,0.4l0,0h-1c-0.1,0-0.3,0-0.3-0.1l0,0c-0.1-0.1-0.1-0.2-0.1-0.3l0,0v0
			c-0.2,0-0.2,0-0.5,0.1l0,0l-0.4,0.2c-0.5,0.2-1.3,0.4-2,0.4l0,0C82,16.4,80.6,15.3,80.6,13.7L80.6,13.7z M84.7,11.8L84.7,11.8
			c-1.6,0.5-1.9,0.9-1.9,1.8l0,0c0,0.9,0.5,1.3,1.7,1.3l0,0c0.6,0,1.2-0.1,1.6-0.3l0,0c0.4-0.2,0.5-0.3,0.5-0.9l0,0l0-2.6L84.7,11.8
			"/>
	</g>
	<g>
		<path style="fill:#FFFFFF;" d="M92.3,6.8c0.2,0,0.3,0,0.5-0.1l0,0c0.3-0.1,0.4-0.2,0.5-0.2l0,0c0.6-0.2,1.2-0.3,1.8-0.3l0,0
			c1.1,0,2,0.3,2.6,0.9l0,0c0.6,0.6,1,1.5,1,2.5l0,0v6.3c0,0.2-0.2,0.4-0.4,0.4l0,0h-1.3l0,0c-0.2,0-0.4-0.2-0.4-0.4l0,0V9.8
			c0-1.5-0.7-2.1-2.2-2.2l0,0c-0.5,0-1,0.1-1.4,0.2l0,0c-0.5,0.2-0.7,0.4-0.7,0.9l0,0v7.1c0,0.2-0.2,0.4-0.4,0.4l0,0h-1.2
			c-0.2,0-0.4-0.2-0.4-0.4l0,0V6.7c0-0.2,0.2-0.4,0.4-0.4l0,0h1c0.2,0,0.3,0,0.4,0.1l0,0C92.3,6.5,92.3,6.6,92.3,6.8L92.3,6.8
			L92.3,6.8L92.3,6.8"/>
	</g>
	<g>
		<path style="fill:#FFFFFF;" d="M99.7,7.8c-0.2,0-0.4-0.2-0.4-0.4l0,0V6.7c0-0.2,0.2-0.4,0.4-0.4l0,0h1V4.1c0-0.2,0.2-0.4,0.4-0.4
			l0,0h1.2c0.2,0,0.4,0.2,0.4,0.4l0,0v2.2h2.7c0.2,0,0.4,0.2,0.4,0.4l0,0v0.8c0,0.2-0.2,0.4-0.4,0.4l0,0h-2.7v5.6
			c0,1.1,0.4,1.4,1.3,1.4l0,0c0.3,0,0.7-0.1,0.9-0.2l0,0l0.2-0.1c0.1,0,0.2-0.1,0.3-0.1l0,0c0.2,0,0.4,0.2,0.4,0.4l0,0v0.7
			c0,0.2-0.1,0.4-0.3,0.4l0,0c-0.5,0.3-1.4,0.4-2.1,0.4l0,0c-0.9,0-1.6-0.2-2-0.7l0,0c-0.5-0.4-0.7-1.1-0.7-1.9l0,0l0-6H99.7"/>
	</g>
	<g>
		<path style="fill:#FFFFFF;" d="M106.2,13.7c0-0.9,0.5-1.7,1.3-2.2l0,0c0.7-0.4,1.7-0.9,2.7-1.2l0,0l1.4-0.5
			c0.4-0.2,0.5-0.2,0.5-0.5l0,0V8.8c0-0.8-0.4-1.1-1.6-1.1l0,0c-1,0-2.2,0.3-2.9,0.7l0,0c-0.2,0.1-0.3,0.2-0.4,0.2l0,0
			c-0.1,0-0.2,0-0.3-0.1l0,0c-0.1-0.1-0.1-0.2-0.1-0.3l0,0V7.4c0-0.3,0.1-0.5,0.2-0.6l0,0c0.6-0.4,2.4-0.7,3.7-0.7l0,0
			c1.1,0,1.9,0.2,2.5,0.7l0,0c0.6,0.5,0.9,1.2,0.9,2.1l0,0v7c0,0.2-0.2,0.4-0.4,0.4l0,0h-1c-0.1,0-0.3,0-0.3-0.1l0,0
			c-0.1-0.1-0.1-0.2-0.1-0.3l0,0v0c-0.2,0-0.2,0-0.5,0.1l0,0l-0.4,0.2c-0.5,0.2-1.3,0.4-2,0.4l0,0C107.6,16.4,106.2,15.3,106.2,13.7
			L106.2,13.7z M110.3,11.8L110.3,11.8c-1.6,0.5-1.9,0.9-1.9,1.8l0,0c0,0.9,0.5,1.3,1.7,1.3l0,0c0.6,0,1.2-0.1,1.6-0.3l0,0
			c0.4-0.2,0.5-0.3,0.5-0.9l0,0v-2.6L110.3,11.8"/>
	</g>
	<g>
		<path style="fill:#FFFFFF;" d="M116.7,15.1c-0.8-0.9-1.3-2.1-1.3-3.7l0,0c0-1.6,0.4-2.9,1.2-3.8l0,0c0.8-0.9,1.9-1.4,3.3-1.4l0,0
			c2.6,0,4.3,1.8,4.3,4.5l0,0v0.5c0,0.2-0.2,0.4-0.4,0.4l0,0h-6.4v0c0,2,1.2,3.3,3.1,3.3l0,0c0.7,0,1.6-0.3,2.3-0.7l0,0l0.1-0.1
			c0.1-0.1,0.2-0.1,0.3-0.1l0,0c0.2,0,0.4,0.2,0.4,0.4l0,0v0.8c0,0.3-0.1,0.5-0.5,0.6l0,0c-0.9,0.4-2,0.6-3,0.6l0,0
			C118.8,16.4,117.6,15.9,116.7,15.1L116.7,15.1z M122.2,10C122.2,10,122.2,9.9,122.2,10L122.2,10c0-1.4-0.9-2.3-2.4-2.4l0,0
			c-1.4,0-2.4,1-2.4,2.4l0,0H122.2L122.2,10z"/>
	</g>
	<g>
		<path style="fill:#FFFFFF;" d="M124.7,7.8c-0.2,0-0.4-0.2-0.4-0.4l0,0V6.7c0-0.2,0.2-0.4,0.4-0.4l0,0h1V4.1c0-0.2,0.2-0.4,0.4-0.4
			l0,0h1.2c0.2,0,0.4,0.2,0.4,0.4l0,0v2.2h2.7c0.2,0,0.4,0.2,0.4,0.4l0,0v0.8c0,0.2-0.2,0.4-0.4,0.4l0,0l-2.7,0v5.6
			c0,1.1,0.4,1.4,1.3,1.5l0,0c0.3,0,0.7-0.1,1-0.2l0,0l0.2-0.1c0.1,0,0.2-0.1,0.3-0.1l0,0c0.2,0,0.3,0.2,0.3,0.4l0,0v0.7
			c0,0.2-0.1,0.4-0.3,0.4l0,0c-0.5,0.3-1.4,0.4-2.1,0.4l0,0c-0.9,0-1.6-0.2-2-0.7l0,0c-0.5-0.4-0.7-1.1-0.7-1.9l0,0v-6H124.7"/>
	</g>
	<g>
		<path style="fill:#FFFFFF;" d="M138.3,16.3c-0.2,0-0.4-0.2-0.4-0.4l0,0V9.6c0-1.4-0.7-2-2.2-2l0,0c-0.5,0-0.9,0.1-1.3,0.2l0,0
			c-0.6,0.2-0.7,0.4-0.7,0.9l0,0v7c0,0.2-0.2,0.4-0.4,0.4l0,0h-1.2c-0.2,0-0.4-0.2-0.4-0.4l0,0V2.8c0-0.2,0.2-0.4,0.4-0.4l0,0h1.2
			c0.2,0,0.4,0.2,0.4,0.4l0,0v4c0.1,0,0.2,0,0.4-0.1l0,0c0.8-0.4,1.5-0.5,2.3-0.5l0,0c1.1,0,2,0.3,2.6,0.9l0,0c0.6,0.6,1,1.5,1,2.5
			l0,0v6.3c0,0.2-0.2,0.4-0.4,0.4l0,0H138.3L138.3,16.3z"/>
	</g>
	<g>
		<path style="fill:#FFFFFF;" d="M59.2,29.5c0.1,0,0.2,0,0.4,0.2l0,0c0.6,0.4,1.7,0.7,2.6,0.7l0,0c1.4,0,2.2-0.7,2.2-1.9l0,0
			c0-0.3-0.1-0.6-0.2-0.9l0,0c-0.2-0.4-0.4-0.5-1-1l0,0L60.9,25c-0.4-0.3-0.8-0.6-1-0.8l0,0c-0.5-0.5-0.8-1.4-0.8-2.2l0,0
			c0-1.1,0.4-2,1.1-2.6l0,0c0.7-0.6,1.7-0.9,3-0.9l0,0c1,0,2.1,0.2,2.8,0.5l0,0c0.2,0.1,0.3,0.2,0.3,0.5l0,0v1.1c0,0.1,0,0.2,0,0.3
			l0,0c0,0.1-0.1,0.1-0.2,0.1l0,0c-0.1,0-0.2,0-0.4-0.2l0,0C65,20.2,64.2,20,63.3,20l0,0c-1.3,0-2.1,0.7-2.1,1.7l0,0
			c0,0.7,0.2,1.1,1,1.6l0,0l2.4,1.6c1.5,1,2.1,1.9,2.1,3.3l0,0c0,2.3-1.7,3.8-4.4,3.8l0,0c-1,0-2.2-0.2-2.9-0.5l0,0
			c-0.3-0.1-0.5-0.3-0.5-0.5l0,0v-1.2C58.9,29.6,59.1,29.5,59.2,29.5L59.2,29.5"/>
	</g>
	<g>
		<path style="fill:#FFFFFF;" d="M67.5,29.2c0-0.9,0.5-1.7,1.3-2.2l0,0c0.7-0.4,1.7-0.9,2.7-1.2l0,0l1.4-0.5
			c0.4-0.2,0.5-0.2,0.5-0.5l0,0l0-0.4c0-0.8-0.4-1.1-1.6-1.1l0,0c-1,0-2.2,0.3-2.9,0.7l0,0c-0.2,0.1-0.3,0.2-0.4,0.2l0,0
			c-0.1,0-0.2,0-0.3-0.1l0,0c-0.1-0.1-0.1-0.2-0.1-0.3l0,0v-0.8c0-0.3,0.1-0.5,0.2-0.6l0,0c0.6-0.4,2.4-0.7,3.7-0.7l0,0
			c1.1,0,1.9,0.2,2.5,0.7l0,0c0.6,0.5,0.9,1.2,0.9,2.1l0,0v7c0,0.2-0.2,0.4-0.4,0.4l0,0h-1c-0.1,0-0.3,0-0.3-0.1l0,0
			c-0.1-0.1-0.1-0.2-0.1-0.3l0,0v0c-0.2,0-0.2,0-0.5,0.1l0,0l-0.4,0.2c-0.5,0.2-1.3,0.4-2,0.4l0,0C68.9,31.9,67.5,30.8,67.5,29.2
			L67.5,29.2z M71.6,27.3L71.6,27.3c-1.6,0.5-1.9,0.9-1.9,1.8l0,0c0,0.9,0.5,1.3,1.7,1.3l0,0c0.6,0,1.2-0.1,1.6-0.3l0,0
			c0.4-0.2,0.5-0.3,0.5-0.9l0,0v-2.6L71.6,27.3"/>
	</g>
	<g>
		<path style="fill:#FFFFFF;" d="M78.2,31.8c-0.2,0-0.4-0.2-0.4-0.4l0,0v-8h-1.2c-0.2,0-0.4-0.2-0.4-0.4l0,0v-0.8
			c0-0.2,0.2-0.4,0.4-0.4l0,0h1.2v-1c0-1.2,0.2-1.8,0.9-2.3l0,0c0.5-0.4,1.3-0.7,2-0.7l0,0c0.8,0,1.4,0.2,1.4,0.6l0,0v0.8
			c0,0.2-0.1,0.4-0.3,0.4l0,0c-0.1,0-0.2,0-0.3-0.1l0,0l-0.2-0.1c-0.1-0.1-0.4-0.1-0.5-0.1l0,0c-0.8,0-1.1,0.4-1.1,1.4l0,0l0,1.1
			l1.8,0c0.2,0,0.4,0.2,0.4,0.4l0,0V23c0,0.1,0,0.2-0.1,0.3l0,0c-0.1,0.1-0.2,0.1-0.3,0.1l0,0h-1.8v8c0,0.2-0.2,0.4-0.4,0.4l0,0
			H78.2L78.2,31.8z"/>
	</g>
	<g>
		<path style="fill:#FFFFFF;" d="M86.8,21.6c1.5,0,2.7,0.5,3.5,1.4l0,0c0.8,0.9,1.3,2.2,1.3,3.8l0,0c0,1.6-0.5,2.9-1.3,3.8l0,0
			c-0.8,0.9-2,1.4-3.5,1.4l0,0h0l0,0c-1.5,0-2.7-0.5-3.6-1.4l0,0c-0.8-0.9-1.3-2.2-1.3-3.8l0,0c0-1.6,0.5-2.9,1.3-3.8l0,0
			C84.1,22.1,85.3,21.6,86.8,21.6L86.8,21.6 M84.9,29.8c0.4,0.5,1.1,0.8,1.9,0.8l0,0c1.8,0,2.7-1.2,2.7-3.7l0,0
			c0-2.5-0.9-3.7-2.7-3.7l0,0c-1.8,0-2.7,1.1-2.7,3.7l0,0C84.1,28.3,84.3,29.1,84.9,29.8L84.9,29.8"/>
	</g>
	<g>
		<path style="fill:#FFFFFF;" d="M94.9,22.3c0.2,0,0.3,0,0.5-0.2l0,0c0.3-0.1,0.4-0.2,0.5-0.2l0,0c0.6-0.2,1.2-0.3,1.8-0.3l0,0
			c1.1,0,2,0.3,2.6,0.9l0,0c0.6,0.6,1,1.5,1,2.5l0,0v6.3c0,0.2-0.2,0.4-0.4,0.4l0,0h-1.3l0,0c-0.2,0-0.4-0.2-0.4-0.4l0,0v-6
			c0-1.5-0.7-2.1-2.2-2.2l0,0c-0.5,0-1,0.1-1.4,0.2l0,0c-0.5,0.2-0.7,0.4-0.7,0.9l0,0v7.1c0,0.2-0.2,0.4-0.4,0.4l0,0h-1.2
			c-0.2,0-0.4-0.2-0.4-0.4l0,0v-9.2c0-0.2,0.2-0.4,0.4-0.4l0,0h1c0.2,0,0.3,0,0.4,0.1l0,0C94.8,22,94.8,22.1,94.9,22.3L94.9,22.3
			L94.9,22.3L94.9,22.3"/>
	</g>
	<g>
		<path style="fill:#FFFFFF;" d="M102.3,29.2c0-0.9,0.5-1.7,1.3-2.2l0,0c0.7-0.4,1.7-0.9,2.7-1.2l0,0l1.4-0.5
			c0.4-0.2,0.5-0.2,0.5-0.5l0,0l0-0.4c0-0.8-0.4-1.1-1.6-1.1l0,0c-1,0-2.2,0.3-2.9,0.7l0,0c-0.2,0.1-0.3,0.2-0.4,0.2l0,0
			c-0.1,0-0.2,0-0.3-0.1l0,0c-0.1-0.1-0.1-0.2-0.1-0.3l0,0v-0.8c0-0.3,0.1-0.5,0.2-0.6l0,0c0.6-0.4,2.4-0.7,3.7-0.7l0,0
			c1.1,0,1.9,0.2,2.5,0.7l0,0c0.6,0.5,0.9,1.2,0.9,2.1l0,0v7c0,0.2-0.2,0.4-0.4,0.4l0,0h-1c-0.1,0-0.3,0-0.3-0.1l0,0
			c-0.1-0.1-0.1-0.2-0.1-0.3l0,0v0c-0.2,0-0.2,0-0.5,0.1l0,0l-0.4,0.2c-0.5,0.2-1.3,0.4-2,0.4l0,0C103.7,31.9,102.3,30.8,102.3,29.2
			L102.3,29.2z M106.4,27.3L106.4,27.3c-1.6,0.5-1.9,0.9-1.9,1.8l0,0c0,0.9,0.5,1.3,1.7,1.3l0,0c0.6,0,1.2-0.1,1.6-0.3l0,0
			c0.4-0.2,0.5-0.3,0.5-0.9l0,0v-2.6L106.4,27.3"/>
	</g>
	<g>
		<path style="fill:#FFFFFF;" d="M113,31.1c-0.6-0.5-0.9-1.3-0.9-2.3l0,0v-6.6c0-0.2,0.2-0.4,0.4-0.4l0,0h1.3c0.2,0,0.4,0.2,0.4,0.4
			l0,0v6c0,0.9,0.2,1.4,0.6,1.7l0,0c0.4,0.3,0.9,0.5,1.5,0.5l0,0c0.4,0,0.8-0.1,1.2-0.2l0,0c0.7-0.2,0.8-0.4,0.8-0.9l0,0v-7.2
			c0-0.2,0.2-0.4,0.4-0.4l0,0h1.3c0.2,0,0.4,0.2,0.4,0.4l0,0v9.2c0,0.2-0.2,0.4-0.4,0.4l0,0h-1.1c-0.2,0-0.4-0.2-0.4-0.4l0,0v-0.1
			c-0.2,0-0.3,0-0.5,0.1l0,0l0,0l-0.6,0.2c-0.7,0.2-1.2,0.3-1.9,0.3l0,0C114.5,31.9,113.6,31.7,113,31.1L113,31.1z"/>
	</g>
	<g>
		<path style="fill:#FFFFFF;" d="M59.9,47c-0.2,0-0.3-0.1-0.3-0.3l0,0V34c0-0.2,0.1-0.3,0.3-0.3l0,0h3.8c1.3,0,2.3,0.3,2.9,0.9l0,0
			c0.7,0.6,1,1.4,1,2.5l0,0c0,1.5-0.7,2.4-2,2.8l0,0c0,0,0,0,0,0l0,0c0.4,0.1,0.7,0.2,1.1,0.4l0,0c1.1,0.5,1.7,1.6,1.7,3l0,0
			c0,1.2-0.4,2.1-1.2,2.8l0,0c-0.8,0.6-1.9,1-3.3,1l0,0L59.9,47L59.9,47z M63.6,45.5c1.8,0,2.7-0.8,2.7-2.4l0,0
			c0-1.6-0.9-2.4-2.8-2.4l0,0h-1.8v4.8H63.6 M63.1,39.3c1.1,0,1.4-0.1,1.8-0.5l0,0c0.4-0.4,0.6-0.9,0.6-1.5l0,0c0-1.3-0.8-2.1-2-2.1
			l0,0h-1.8v4.2H63.1"/>
	</g>
	<g>
		<path style="fill:#FFFFFF;" d="M77.7,46.3l-0.2-0.6L77.1,44l-0.5-1.8l-0.5-2L76,39.3l-0.2,0.9l-0.5,1.9L74.8,44
			c-0.5,1.9-0.7,2.5-0.9,2.8l0,0c-0.1,0.2-0.4,0.3-0.7,0.3l0,0h-0.9c-0.5,0-0.7-0.2-0.9-0.7l0,0l-0.1-0.4l-2.7-8.4
			c0-0.1-0.1-0.2-0.1-0.3l0,0c0-0.2,0.2-0.4,0.4-0.4l0,0h1.1c0.3,0,0.6,0.1,0.6,0.5l0,0l2.2,7.5l0,0l0.4-1.5l0.7-2.4l0.4-1.6
			l0.3-1.1c0.1-0.5,0.2-0.8,0.3-1l0,0c0.1-0.2,0.4-0.3,0.7-0.3l0,0h0.8c0.5,0,0.7,0.2,0.9,0.7l0,0l0.1,0.4l0.4,1.3l0.5,1.7
			c0.3,1.2,0.5,2,0.6,2.3l0,0c0.2,0.8,0.3,1.2,0.3,1.4l0,0c0,0,0,0.1,0,0.1l0,0l2.2-7.5c0.1-0.3,0.3-0.5,0.5-0.4l0,0h0.8
			c0.1,0,0.2,0,0.3,0.1l0,0c0.1,0.1,0.1,0.2,0.1,0.3l0,0c0,0,0,0.1,0,0.1l0,0l-0.1,0.1l-2.5,8.2l-0.1,0.5c-0.2,0.7-0.4,0.9-1,0.9
			l0,0h-0.8c0,0-0.1,0-0.1,0l0,0C78.1,47.1,77.9,46.9,77.7,46.3L77.7,46.3z M76,39.3L76,39.3L76,39.3L76,39.3L76,39.3z"/>
	</g>
	<g>
		<path style="fill:#FFFFFF;" d="M90.5,37.4c0.1-0.3,0.3-0.5,0.6-0.4l0,0h0.8c0.3,0,0.5,0.1,0.5,0.3l0,0c0,0.1,0,0.2-0.1,0.3l0,0
			l-3.2,8.8l-0.4,1.2c-0.4,1-0.8,2-1.1,2.6l0,0c-0.4,0.7-0.9,1-1.6,1l0,0c0,0,0,0,0,0l0,0h-0.2c-0.2,0-0.3,0-0.4-0.1l0,0
			c-0.1-0.1-0.1-0.2-0.1-0.4l0,0V50c0-0.3,0.1-0.5,0.4-0.5l0,0h0.2c0.2,0,0.2,0,0.3-0.2l0,0c0.2-0.3,0.4-0.8,0.6-1.3l0,0l0.4-1.2
			l-3.7-9.1c-0.1-0.2-0.1-0.3-0.1-0.4l0,0c0-0.2,0.2-0.4,0.5-0.4l0,0h1.1c0.3,0,0.6,0.1,0.7,0.4l0,0l2.7,6.9L90.5,37.4"/>
	</g>
	<g>
		<path style="fill:#FFFFFF;" d="M93.5,45.7c-0.8-0.9-1.3-2.2-1.3-3.7l0,0c0-3.1,2-5.2,4.8-5.2l0,0c0.7,0,1.4,0.2,1.9,0.4l0,0
			l0.2,0.1c0.1,0.1,0.1,0.1,0.2,0.1l0,0c0,0,0,0,0,0l0,0l0-4c0-0.2,0.2-0.4,0.4-0.4l0,0h1.2c0.2,0,0.4,0.2,0.4,0.4l0,0l0,13.1
			c0,0.2-0.2,0.4-0.4,0.4l0,0h-1c-0.2,0-0.4-0.2-0.4-0.4l0,0v0c-0.1,0-0.2,0-0.3,0.1l0,0l-0.2,0.1c-0.6,0.3-1.3,0.4-2.1,0.4l0,0
			C95.6,47.1,94.4,46.6,93.5,45.7L93.5,45.7z M95.1,39.3c-0.6,0.7-0.8,1.4-0.8,2.8l0,0c0,2.2,1.1,3.5,3.1,3.5l0,0
			c0.4,0,0.8-0.1,1.1-0.2l0,0c0.7-0.2,0.8-0.4,0.8-0.9l0,0l0-4.9c0-0.5-0.1-0.6-0.4-0.8l0,0l0,0c-0.4-0.2-0.9-0.3-1.5-0.3l0,0
			C96.5,38.4,95.7,38.7,95.1,39.3L95.1,39.3z"/>
	</g>
</g>
</svg>
